# xmcd
#
# Track frame offsets:
#	150
#	14105
#	25832
#	41335
#	55212
#	72655
#	84157
#	97110
#	109445
#	124667
#	139897
#	155170
#
# Disc length: 2246
#
# Revision: 3
# Processed by: cddbd v1.5.1PL0 Copyright (c) Steve Scherf et al.
# Submitted via: EasyCD 2.21 - (C) 1996 Greg Leichner
# Normalized: r1:TDELIM( - ),TSWAP
#
DISCID=ac08c40c
DTITLE=Miscellaneous Artists - New Country [CD1]
DYEAR=1900
DGENRE=
TTITLE0=ALAN JACKSON - Chasin' That Neon Rainbow
TTITLE1=DWIGHT YOAKAM - It Only Hurt's When I Cry
TTITLE2=DOLLY PARTON - Think 'About Love
TTITLE3=AARON TIPPIN - You've Got To Stand For Something
TTITLE4=MARY CHAPIN-CARPENTER - Quittin' Time
TTITLE5=TRAVIS TRITT - Here's A Quarter (Call Somone Who Cares)
TTITLE6=THE KENTUCKY HEADHUNTERS - Dumas Walker
TTITLE7=TANYA TUCKER - Strong Enough To Bend
TTITLE8=RICKY VAN SHELTON - Living Proof
TTITLE9=KATHY MATTEA - Eighteen Wheels And A Dozen Roses
TTITLE10=THE NITTY GRITTY DIRT BAND - Fishin' In The Dark
TTITLE11=HAL KETCHUM - Small Town Saturday Night
EXTD=
EXTT0=
EXTT1=
EXTT2=
EXTT3=
EXTT4=
EXTT5=
EXTT6=
EXTT7=
EXTT8=
EXTT9=
EXTT10=
EXTT11=
PLAYORDER=
